<svg xmlns="http://www.w3.org/2000/svg" xmlns:xlink="http://www.w3.org/1999/xlink" width="500" zoomAndPan="magnify" viewBox="0 0 375 374.999991" height="500" preserveAspectRatio="xMidYMid meet" version="1.0"><defs><g/><clipPath id="1059efb3d7"><path d="M 60 162 L 99 162 L 99 188 L 60 188 Z M 60 162 " clip-rule="nonzero"/></clipPath><clipPath id="97c6d22326"><path d="M 102.8125 167.464844 L 93.890625 193.742188 L 60.511719 182.410156 L 69.433594 156.132812 Z M 102.8125 167.464844 " clip-rule="nonzero"/></clipPath><clipPath id="b6ace607d4"><path d="M 102.8125 167.464844 L 93.890625 193.742188 L 60.511719 182.410156 L 69.433594 156.132812 Z M 102.8125 167.464844 " clip-rule="nonzero"/></clipPath><clipPath id="59d2fae890"><path d="M 74 164 L 98 164 L 98 186 L 74 186 Z M 74 164 " clip-rule="nonzero"/></clipPath><clipPath id="a15c34492c"><path d="M 102.8125 167.464844 L 93.890625 193.742188 L 60.511719 182.410156 L 69.433594 156.132812 Z M 102.8125 167.464844 " clip-rule="nonzero"/></clipPath><clipPath id="90f212e846"><path d="M 102.8125 167.464844 L 93.890625 193.742188 L 60.511719 182.410156 L 69.433594 156.132812 Z M 102.8125 167.464844 " clip-rule="nonzero"/></clipPath><clipPath id="d3db6995d4"><path d="M 207.535156 182 L 255.535156 182 L 255.535156 195 L 207.535156 195 Z M 207.535156 182 " clip-rule="nonzero"/></clipPath></defs><rect x="-37.5" width="450" fill="#ffffff" y="-37.499999" height="449.999989" fill-opacity="1"/><rect x="-37.5" width="450" fill="#36382e" y="-37.499999" height="449.999989" fill-opacity="1"/><g fill="#6bffb8" fill-opacity="1"><g transform="translate(66.801878, 221.624985)"><g><path d="M 38.703125 -55.5 C 38.765625 -55.300781 38.796875 -52.800781 38.796875 -48 L 38.796875 -41.296875 C 38.660156 -37.960938 37.609375 -34.976562 35.640625 -32.34375 C 33.679688 -29.71875 31.132812 -27.800781 28 -26.59375 C 27.0625 -26.257812 25.660156 -26.03125 23.796875 -25.90625 C 22.660156 -25.90625 21.726562 -25.882812 21 -25.84375 C 20.269531 -25.8125 19.769531 -25.765625 19.5 -25.703125 C 17.832031 -25.503906 16.929688 -24.851562 16.796875 -23.75 C 16.660156 -22.644531 16.59375 -21.296875 16.59375 -19.703125 L 16.59375 -4 C 16.59375 -2.195312 16.363281 -1.0625 15.90625 -0.59375 C 15.632812 -0.332031 14.984375 -0.132812 13.953125 0 C 12.921875 0.132812 11.769531 0.179688 10.5 0.140625 C 9.226562 0.109375 8.0625 0.0625 7 0 C 5.800781 -0.132812 5.132812 -0.664062 5 -1.59375 C 4.863281 -2.53125 4.796875 -3.597656 4.796875 -4.796875 L 4.796875 -65.203125 C 4.796875 -66.867188 4.878906 -68.035156 5.046875 -68.703125 C 5.210938 -69.367188 5.644531 -69.785156 6.34375 -69.953125 C 7.050781 -70.117188 8.238281 -70.203125 9.90625 -70.203125 L 21.40625 -70.203125 C 22.9375 -70.203125 24.632812 -70 26.5 -69.59375 C 28.363281 -69.195312 30.175781 -68.460938 31.9375 -67.390625 C 33.707031 -66.328125 35.207031 -64.828125 36.4375 -62.890625 C 37.675781 -60.960938 38.429688 -58.5 38.703125 -55.5 Z M 27.5 -43.09375 C 27.832031 -45.363281 27.929688 -47.613281 27.796875 -49.84375 C 27.660156 -52.082031 27.078125 -53.984375 26.046875 -55.546875 C 25.015625 -57.117188 23.265625 -58.003906 20.796875 -58.203125 C 19.066406 -58.335938 17.914062 -58.117188 17.34375 -57.546875 C 16.78125 -56.984375 16.515625 -55.953125 16.546875 -54.453125 C 16.578125 -52.953125 16.59375 -50.800781 16.59375 -48 L 16.703125 -48 L 16.703125 -40.09375 C 16.835938 -38.425781 17.769531 -37.460938 19.5 -37.203125 C 21.4375 -36.929688 23.1875 -37.34375 24.75 -38.4375 C 26.3125 -39.539062 27.226562 -41.09375 27.5 -43.09375 Z M 27.5 -43.09375 "/></g></g></g><g fill="#6bffb8" fill-opacity="1"><g transform="translate(109.600226, 221.624985)"><g><path d="M 40.09375 -6 C 40.632812 -3.0625 40.503906 -1.257812 39.703125 -0.59375 C 39.429688 -0.332031 38.628906 -0.148438 37.296875 -0.046875 C 35.960938 0.046875 34.628906 0.078125 33.296875 0.046875 C 31.960938 0.015625 31.164062 0 30.90625 0 C 29.96875 -0.0625 29.300781 -0.296875 28.90625 -0.703125 C 28.4375 -1.097656 28.132812 -1.710938 28 -2.546875 C 27.863281 -3.378906 27.695312 -4.597656 27.5 -6.203125 C 27.4375 -6.929688 27.367188 -7.59375 27.296875 -8.1875 C 27.234375 -8.789062 27.132812 -9.296875 27 -9.703125 C 27 -10.035156 26.914062 -10.664062 26.75 -11.59375 C 26.582031 -12.53125 26.25 -13.429688 25.75 -14.296875 C 25.25 -15.160156 24.398438 -15.59375 23.203125 -15.59375 C 22.929688 -15.664062 22.726562 -15.703125 22.59375 -15.703125 C 22.46875 -15.703125 22.40625 -15.703125 22.40625 -15.703125 C 20.664062 -15.703125 19.363281 -15.617188 18.5 -15.453125 C 17.632812 -15.285156 17.015625 -14.832031 16.640625 -14.09375 C 16.273438 -13.363281 15.992188 -12.132812 15.796875 -10.40625 C 15.734375 -10 15.582031 -9.128906 15.34375 -7.796875 C 15.113281 -6.460938 14.800781 -4.628906 14.40625 -2.296875 C 14.132812 -0.828125 13.300781 -0.09375 11.90625 -0.09375 C 8.832031 -0.03125 6.226562 -0.03125 4.09375 -0.09375 C 2.695312 -0.164062 2.015625 -0.664062 2.046875 -1.59375 C 2.078125 -2.53125 2.195312 -3.734375 2.40625 -5.203125 C 3.601562 -12.003906 4.566406 -17.535156 5.296875 -21.796875 C 6.035156 -26.066406 6.535156 -29.066406 6.796875 -30.796875 C 6.796875 -30.929688 6.8125 -31.066406 6.84375 -31.203125 C 6.882812 -31.335938 6.90625 -31.4375 6.90625 -31.5 L 3.40625 -33.59375 C 2.800781 -33.925781 2.5 -34.394531 2.5 -35 C 2.5 -35.664062 2.800781 -36.132812 3.40625 -36.40625 L 8.203125 -39.203125 C 9.335938 -45.398438 10.269531 -50.75 11 -55.25 C 11.726562 -59.75 12.328125 -63.363281 12.796875 -66.09375 C 13.128906 -67.757812 13.578125 -68.828125 14.140625 -69.296875 C 14.710938 -69.765625 15.800781 -70 17.40625 -70 L 26.5 -70 C 27.5625 -69.863281 28.296875 -69.664062 28.703125 -69.40625 C 29.035156 -69.070312 29.316406 -68.503906 29.546875 -67.703125 C 29.785156 -66.898438 29.96875 -66.097656 30.09375 -65.296875 C 31.5 -57.035156 32.566406 -50.703125 33.296875 -46.296875 C 34.035156 -41.898438 34.4375 -39.5 34.5 -39.09375 L 39.203125 -36.40625 C 39.734375 -36.070312 40 -35.601562 40 -35 C 40 -34.394531 39.734375 -33.925781 39.203125 -33.59375 L 35.796875 -31.59375 C 37.128906 -23.46875 38.160156 -17.269531 38.890625 -13 C 39.628906 -8.726562 40.03125 -6.394531 40.09375 -6 Z M 24.40625 -28 C 24.40625 -28.132812 24.40625 -28.332031 24.40625 -28.59375 C 24.40625 -28.863281 24.367188 -29.234375 24.296875 -29.703125 C 24.234375 -30.296875 24.097656 -31.160156 23.890625 -32.296875 C 23.691406 -33.429688 23.492188 -34.5 23.296875 -35.5 C 23.097656 -36.5 23 -37.03125 23 -37.09375 C 22.9375 -37.5 22.738281 -38 22.40625 -38.59375 C 22.132812 -39.132812 21.765625 -39.351562 21.296875 -39.25 C 20.828125 -39.144531 20.492188 -38.925781 20.296875 -38.59375 C 19.960938 -37.664062 19.644531 -36.429688 19.34375 -34.890625 C 19.050781 -33.359375 18.835938 -31.53125 18.703125 -29.40625 C 18.628906 -29.132812 18.59375 -28.878906 18.59375 -28.640625 C 18.59375 -28.410156 18.59375 -28.226562 18.59375 -28.09375 C 18.59375 -27.632812 19.0625 -27.320312 20 -27.15625 C 20.9375 -26.988281 21.882812 -26.988281 22.84375 -27.15625 C 23.8125 -27.320312 24.332031 -27.601562 24.40625 -28 Z M 24.40625 -28 "/></g></g></g><g clip-path="url(#1059efb3d7)"><g clip-path="url(#97c6d22326)"><g clip-path="url(#b6ace607d4)"><path fill="#36382e" d="M 78.699219 164.945312 C 79.484375 165.074219 80.386719 165.238281 81.183594 165.222656 C 81.988281 165.199219 82.792969 164.210938 83.476562 163.792969 C 84.589844 163.117188 85.851562 162.636719 87.152344 162.613281 C 88.453125 162.589844 89.796875 163.046875 90.679688 164.003906 C 91.261719 164.621094 91.617188 165.414062 92.226562 165.996094 C 93.226562 166.964844 94.742188 167.242188 95.730469 168.214844 C 97.105469 169.558594 97.066406 171.742188 97.765625 173.53125 C 98.011719 174.167969 98.355469 174.765625 98.585938 175.417969 C 99.246094 177.316406 98.691406 179.582031 97.222656 180.957031 C 96.59375 181.546875 95.828125 181.972656 95.222656 182.601562 C 94.484375 183.363281 94.046875 184.367188 93.390625 185.199219 C 91.660156 187.394531 88.335938 188.144531 85.824219 186.910156 C 85.292969 186.648438 84.796875 186.308594 84.238281 186.105469 C 82.84375 185.609375 81.3125 186.054688 79.824219 186.015625 C 77.261719 185.957031 74.964844 184.46875 72.46875 183.882812 C 70.570312 183.429688 68.597656 183.378906 66.652344 183.292969 C 62.777344 183.128906 60.789062 181.78125 60.683594 181.644531 L 65.191406 168.359375 C 65.425781 168.167969 65.6875 168.003906 65.988281 167.90625 C 67.039062 167.554688 68.300781 167.96875 69.375 167.996094 C 70.765625 168.03125 72.101562 168.351562 73.324219 167.644531 C 74.261719 167.101562 74.777344 166.722656 75.648438 166.066406 C 76.535156 165.429688 77.628906 164.773438 78.699219 164.945312 Z M 78.699219 164.945312 " fill-opacity="1" fill-rule="nonzero"/></g></g></g><g clip-path="url(#59d2fae890)"><g clip-path="url(#a15c34492c)"><g clip-path="url(#90f212e846)"><path fill="#6bffb8" d="M 88.667969 179.128906 C 88.152344 179.667969 87.519531 180.074219 86.886719 180.480469 C 85.179688 181.574219 83.46875 182.664062 81.757812 183.757812 C 81.242188 184.085938 80.707031 184.425781 80.101562 184.492188 C 79.203125 184.59375 76.699219 184.210938 76.003906 182.148438 C 75.773438 181.480469 75.71875 180.769531 75.761719 180.054688 C 75.867188 178.546875 76 177.027344 75.757812 175.542969 C 75.511719 174.027344 74.878906 172.59375 74.738281 171.070312 C 74.597656 169.546875 75.136719 167.789062 76.539062 167.179688 C 77.621094 166.707031 78.910156 167.070312 79.929688 167.667969 C 80.953125 168.265625 81.820312 169.097656 82.859375 169.671875 C 84.160156 170.410156 85.65625 170.710938 87.039062 171.269531 C 90.363281 172.613281 91.320312 176.363281 88.667969 179.128906 Z M 96.605469 176.445312 C 96.089844 175.855469 95.375 175.4375 94.597656 175.335938 C 93.820312 175.234375 92.996094 175.46875 92.4375 176.019531 C 91.890625 176.570312 91.640625 177.4375 91.882812 178.175781 C 92.09375 178.800781 92.617188 179.296875 93.21875 179.546875 C 93.820312 179.800781 94.507812 179.84375 95.160156 179.769531 C 95.613281 179.710938 96.082031 179.59375 96.453125 179.328125 C 97.4375 178.625 97.339844 177.277344 96.605469 176.445312 Z M 91.257812 181.867188 C 90.84375 181.585938 90.40625 181.328125 89.933594 181.203125 C 89.457031 181.082031 88.917969 181.105469 88.464844 181.378906 C 87.957031 181.675781 87.613281 182.234375 87.375 182.808594 C 87.214844 183.191406 87.085938 183.609375 87.09375 184.019531 C 87.105469 184.769531 87.589844 185.40625 88.199219 185.703125 C 89.09375 186.136719 90.90625 186.035156 91.730469 185.210938 C 92.789062 184.144531 92.199219 182.492188 91.257812 181.867188 Z M 95.765625 170.136719 C 95.664062 169.753906 95.425781 169.445312 95.164062 169.195312 C 94.53125 168.59375 93.714844 168.238281 92.859375 168.175781 C 92.289062 168.136719 91.632812 168.261719 91.214844 168.761719 C 90.8125 169.230469 90.707031 169.945312 90.820312 170.554688 C 90.984375 171.433594 91.5625 172.140625 92.292969 172.449219 C 93.023438 172.753906 93.898438 172.675781 94.671875 172.296875 C 95.382812 171.933594 95.988281 171 95.765625 170.136719 Z M 88.515625 166.007812 C 88.273438 165.511719 87.726562 165.222656 87.199219 165.035156 C 86.601562 164.820312 85.957031 164.679688 85.324219 164.753906 C 84.695312 164.828125 84.0625 165.144531 83.726562 165.6875 C 83.351562 166.285156 83.371094 167.078125 83.714844 167.691406 C 84.0625 168.304688 84.699219 168.710938 85.378906 168.875 C 86.066406 169.027344 86.789062 168.941406 87.449219 168.691406 C 87.746094 168.578125 88.039062 168.433594 88.257812 168.207031 C 88.679688 167.746094 88.78125 166.554688 88.515625 166.007812 Z M 88.515625 166.007812 " fill-opacity="1" fill-rule="nonzero"/></g></g></g><g fill="#6bffb8" fill-opacity="1"><g transform="translate(157.868256, 221.624985)"><g><path d="M 40.09375 -6 C 40.632812 -3.0625 40.503906 -1.257812 39.703125 -0.59375 C 39.429688 -0.332031 38.628906 -0.148438 37.296875 -0.046875 C 35.960938 0.046875 34.628906 0.078125 33.296875 0.046875 C 31.960938 0.015625 31.164062 0 30.90625 0 C 29.96875 -0.0625 29.300781 -0.296875 28.90625 -0.703125 C 28.4375 -1.097656 28.132812 -1.710938 28 -2.546875 C 27.863281 -3.378906 27.695312 -4.597656 27.5 -6.203125 C 27.4375 -6.929688 27.367188 -7.59375 27.296875 -8.1875 C 27.234375 -8.789062 27.132812 -9.296875 27 -9.703125 C 27 -10.035156 26.914062 -10.664062 26.75 -11.59375 C 26.582031 -12.53125 26.25 -13.429688 25.75 -14.296875 C 25.25 -15.160156 24.398438 -15.59375 23.203125 -15.59375 C 22.929688 -15.664062 22.726562 -15.703125 22.59375 -15.703125 C 22.46875 -15.703125 22.40625 -15.703125 22.40625 -15.703125 C 20.664062 -15.703125 19.363281 -15.617188 18.5 -15.453125 C 17.632812 -15.285156 17.015625 -14.832031 16.640625 -14.09375 C 16.273438 -13.363281 15.992188 -12.132812 15.796875 -10.40625 C 15.734375 -10 15.582031 -9.128906 15.34375 -7.796875 C 15.113281 -6.460938 14.800781 -4.628906 14.40625 -2.296875 C 14.132812 -0.828125 13.300781 -0.09375 11.90625 -0.09375 C 8.832031 -0.03125 6.226562 -0.03125 4.09375 -0.09375 C 2.695312 -0.164062 2.015625 -0.664062 2.046875 -1.59375 C 2.078125 -2.53125 2.195312 -3.734375 2.40625 -5.203125 C 3.601562 -12.003906 4.566406 -17.535156 5.296875 -21.796875 C 6.035156 -26.066406 6.535156 -29.066406 6.796875 -30.796875 C 6.796875 -30.929688 6.8125 -31.066406 6.84375 -31.203125 C 6.882812 -31.335938 6.90625 -31.4375 6.90625 -31.5 L 3.40625 -33.59375 C 2.800781 -33.925781 2.5 -34.394531 2.5 -35 C 2.5 -35.664062 2.800781 -36.132812 3.40625 -36.40625 L 8.203125 -39.203125 C 9.335938 -45.398438 10.269531 -50.75 11 -55.25 C 11.726562 -59.75 12.328125 -63.363281 12.796875 -66.09375 C 13.128906 -67.757812 13.578125 -68.828125 14.140625 -69.296875 C 14.710938 -69.765625 15.800781 -70 17.40625 -70 L 26.5 -70 C 27.5625 -69.863281 28.296875 -69.664062 28.703125 -69.40625 C 29.035156 -69.070312 29.316406 -68.503906 29.546875 -67.703125 C 29.785156 -66.898438 29.96875 -66.097656 30.09375 -65.296875 C 31.5 -57.035156 32.566406 -50.703125 33.296875 -46.296875 C 34.035156 -41.898438 34.4375 -39.5 34.5 -39.09375 L 39.203125 -36.40625 C 39.734375 -36.070312 40 -35.601562 40 -35 C 40 -34.394531 39.734375 -33.925781 39.203125 -33.59375 L 35.796875 -31.59375 C 37.128906 -23.46875 38.160156 -17.269531 38.890625 -13 C 39.628906 -8.726562 40.03125 -6.394531 40.09375 -6 Z M 24.40625 -28 C 24.40625 -28.132812 24.40625 -28.332031 24.40625 -28.59375 C 24.40625 -28.863281 24.367188 -29.234375 24.296875 -29.703125 C 24.234375 -30.296875 24.097656 -31.160156 23.890625 -32.296875 C 23.691406 -33.429688 23.492188 -34.5 23.296875 -35.5 C 23.097656 -36.5 23 -37.03125 23 -37.09375 C 22.9375 -37.5 22.738281 -38 22.40625 -38.59375 C 22.132812 -39.132812 21.765625 -39.351562 21.296875 -39.25 C 20.828125 -39.144531 20.492188 -38.925781 20.296875 -38.59375 C 19.960938 -37.664062 19.644531 -36.429688 19.34375 -34.890625 C 19.050781 -33.359375 18.835938 -31.53125 18.703125 -29.40625 C 18.628906 -29.132812 18.59375 -28.878906 18.59375 -28.640625 C 18.59375 -28.410156 18.59375 -28.226562 18.59375 -28.09375 C 18.59375 -27.632812 19.0625 -27.320312 20 -27.15625 C 20.9375 -26.988281 21.882812 -26.988281 22.84375 -27.15625 C 23.8125 -27.320312 24.332031 -27.601562 24.40625 -28 Z M 24.40625 -28 "/></g></g></g><g fill="#6bffb8" fill-opacity="1"><g transform="translate(200.266622, 221.624985)"><g><path d="M 57.59375 -60.203125 C 56.59375 -53.734375 55.84375 -48.863281 55.34375 -45.59375 C 54.84375 -42.332031 54.492188 -40.164062 54.296875 -39.09375 L 54.203125 -38.296875 L 57.59375 -36.40625 C 58.132812 -36 58.40625 -35.53125 58.40625 -35 C 58.40625 -34.394531 58.132812 -33.894531 57.59375 -33.5 L 52.90625 -30.796875 L 52.59375 -29 C 52.332031 -27.46875 51.847656 -24.515625 51.140625 -20.140625 C 50.441406 -15.773438 49.628906 -10.460938 48.703125 -4.203125 C 48.703125 -3.929688 48.664062 -3.726562 48.59375 -3.59375 L 48.59375 -3 C 48.394531 -1.800781 48.078125 -1 47.640625 -0.59375 C 47.210938 -0.195312 46.429688 0.03125 45.296875 0.09375 C 44.234375 0.09375 43.132812 0.09375 42 0.09375 C 40.863281 0.09375 39.726562 0.0625 38.59375 0 C 37.195312 -0.0625 36.398438 -0.796875 36.203125 -2.203125 C 36.003906 -4.335938 35.601562 -7.070312 35 -10.40625 C 34.664062 -12.40625 34.378906 -14.070312 34.140625 -15.40625 C 33.910156 -16.738281 33.726562 -17.800781 33.59375 -18.59375 C 33.46875 -19.726562 33.300781 -20.742188 33.09375 -21.640625 C 32.894531 -22.546875 32.695312 -23.332031 32.5 -24 C 32.300781 -24.332031 32.015625 -24.515625 31.640625 -24.546875 C 31.273438 -24.578125 30.925781 -24.425781 30.59375 -24.09375 C 30.257812 -23.757812 29.925781 -22.757812 29.59375 -21.09375 C 29.0625 -17.03125 28.59375 -13.628906 28.1875 -10.890625 C 27.789062 -8.160156 27.492188 -6.128906 27.296875 -4.796875 C 27.097656 -3.265625 26.847656 -2.148438 26.546875 -1.453125 C 26.242188 -0.753906 25.726562 -0.320312 25 -0.15625 C 24.269531 0.0078125 23.101562 0.09375 21.5 0.09375 C 20.03125 0.09375 18.613281 0.0625 17.25 0 C 15.882812 -0.0625 15.066406 -0.828125 14.796875 -2.296875 L 13.40625 -10 C 13.070312 -11.863281 12.601562 -14.660156 12 -18.390625 C 11.394531 -22.128906 10.726562 -26.265625 10 -30.796875 L 5.296875 -33.5 C 4.765625 -33.832031 4.5 -34.332031 4.5 -35 C 4.5 -35.601562 4.765625 -36.070312 5.296875 -36.40625 L 8.703125 -38.296875 C 7.835938 -44.035156 7.035156 -49.003906 6.296875 -53.203125 C 5.566406 -57.398438 4.867188 -61.429688 4.203125 -65.296875 C 3.796875 -67.429688 3.859375 -68.78125 4.390625 -69.34375 C 4.929688 -69.914062 6.203125 -70.164062 8.203125 -70.09375 L 9.796875 -70.09375 L 9.796875 -70 C 12.203125 -70 13.800781 -69.984375 14.59375 -69.953125 C 15.394531 -69.921875 15.894531 -69.203125 16.09375 -67.796875 L 17.796875 -57.703125 C 17.867188 -57.234375 17.988281 -56.398438 18.15625 -55.203125 C 18.320312 -54.003906 18.503906 -52.769531 18.703125 -51.5 C 18.898438 -50.226562 19.066406 -49.195312 19.203125 -48.40625 C 19.398438 -47.332031 19.832031 -46.695312 20.5 -46.5 C 20.832031 -46.4375 21.164062 -46.585938 21.5 -46.953125 C 21.832031 -47.316406 22.03125 -47.800781 22.09375 -48.40625 C 22.226562 -49.132812 22.378906 -50.113281 22.546875 -51.34375 C 22.710938 -52.582031 22.878906 -53.75 23.046875 -54.84375 C 23.210938 -55.945312 23.296875 -56.664062 23.296875 -57 C 23.703125 -59.664062 24.035156 -61.898438 24.296875 -63.703125 C 24.566406 -65.503906 24.800781 -66.90625 25 -67.90625 C 25.195312 -69.300781 26 -70 27.40625 -70 C 29.40625 -70.132812 31.867188 -70.132812 34.796875 -70 C 35.796875 -70 36.546875 -69.429688 37.046875 -68.296875 C 37.546875 -67.160156 37.878906 -66.023438 38.046875 -64.890625 C 38.210938 -63.765625 38.296875 -63.101562 38.296875 -62.90625 C 38.429688 -62.101562 38.613281 -60.898438 38.84375 -59.296875 C 39.082031 -57.703125 39.332031 -56.070312 39.59375 -54.40625 C 39.863281 -52.738281 40.066406 -51.40625 40.203125 -50.40625 C 40.203125 -49.863281 40.398438 -49.09375 40.796875 -48.09375 C 41.066406 -47.300781 41.535156 -46.9375 42.203125 -47 C 42.867188 -47.0625 43.269531 -47.492188 43.40625 -48.296875 C 43.738281 -50.367188 44.035156 -52.285156 44.296875 -54.046875 C 44.566406 -55.816406 44.898438 -58.234375 45.296875 -61.296875 C 45.429688 -62.429688 45.582031 -63.429688 45.75 -64.296875 C 45.914062 -65.160156 46.066406 -65.925781 46.203125 -66.59375 C 46.460938 -68.132812 46.8125 -69.085938 47.25 -69.453125 C 47.6875 -69.816406 48.703125 -70.03125 50.296875 -70.09375 C 51.429688 -70.09375 52.5 -70.09375 53.5 -70.09375 C 54.5 -70.09375 55.429688 -70.0625 56.296875 -70 C 58.035156 -70 58.800781 -69.066406 58.59375 -67.203125 C 58.59375 -66.929688 58.507812 -66.210938 58.34375 -65.046875 C 58.175781 -63.878906 57.925781 -62.265625 57.59375 -60.203125 Z M 57.59375 -60.203125 "/></g></g></g><g fill="#6bffb8" fill-opacity="1"><g transform="translate(262.764211, 221.624985)"><g><path d="M 32.59375 -33.40625 C 37.59375 -27.664062 39.59375 -21.097656 38.59375 -13.703125 C 38.195312 -10.566406 36.863281 -7.664062 34.59375 -5 C 33.132812 -3.269531 31.835938 -2.085938 30.703125 -1.453125 C 29.566406 -0.816406 28.296875 -0.445312 26.890625 -0.34375 C 25.492188 -0.25 23.664062 -0.132812 21.40625 0 C 17.664062 0.195312 14.363281 -0.566406 11.5 -2.296875 C 9.695312 -3.429688 8.429688 -4.566406 7.703125 -5.703125 C 5.367188 -9.296875 3.9375 -12.796875 3.40625 -16.203125 C 3.332031 -16.929688 3.3125 -17.796875 3.34375 -18.796875 C 3.382812 -19.796875 3.9375 -20.363281 5 -20.5 C 6.664062 -20.769531 8.066406 -20.96875 9.203125 -21.09375 C 10.335938 -21.226562 11.171875 -21.296875 11.703125 -21.296875 C 12.703125 -21.367188 13.429688 -21.21875 13.890625 -20.84375 C 14.359375 -20.476562 14.726562 -19.765625 15 -18.703125 C 15 -18.628906 15.03125 -18.476562 15.09375 -18.25 C 15.164062 -18.019531 15.234375 -17.738281 15.296875 -17.40625 C 15.566406 -16.332031 15.898438 -15.394531 16.296875 -14.59375 C 17.898438 -11.800781 19.9375 -10.703125 22.40625 -11.296875 C 23.601562 -11.628906 24.632812 -12.363281 25.5 -13.5 C 26.363281 -14.632812 26.796875 -15.867188 26.796875 -17.203125 C 26.867188 -19.203125 26.65625 -20.75 26.15625 -21.84375 C 25.65625 -22.945312 24.867188 -24.03125 23.796875 -25.09375 C 22.734375 -26.164062 21.332031 -27.566406 19.59375 -29.296875 L 18.703125 -30.203125 L 13.296875 -30.203125 C 12.628906 -30.128906 12.144531 -30.375 11.84375 -30.9375 C 11.550781 -31.507812 11.535156 -32.0625 11.796875 -32.59375 L 13.40625 -35.40625 L 10.59375 -38.203125 C 5.726562 -43.460938 3.5625 -49.460938 4.09375 -56.203125 C 4.425781 -60.128906 5.691406 -63.410156 7.890625 -66.046875 C 10.097656 -68.679688 12.800781 -70.398438 16 -71.203125 C 19.664062 -72.128906 22.847656 -72.289062 25.546875 -71.6875 C 28.242188 -71.09375 30.492188 -70.007812 32.296875 -68.4375 C 34.097656 -66.875 35.484375 -65.0625 36.453125 -63 C 37.421875 -60.9375 38.035156 -58.835938 38.296875 -56.703125 C 38.492188 -55.628906 38.0625 -54.894531 37 -54.5 C 34.195312 -53.5625 31.628906 -53.09375 29.296875 -53.09375 C 28.097656 -53.09375 27.300781 -53.628906 26.90625 -54.703125 L 25.90625 -57.296875 C 25.101562 -59.097656 24.015625 -60.179688 22.640625 -60.546875 C 21.273438 -60.910156 20.007812 -60.691406 18.84375 -59.890625 C 17.675781 -59.097656 16.960938 -57.769531 16.703125 -55.90625 C 16.171875 -52.101562 17.40625 -48.5 20.40625 -45.09375 C 20.53125 -44.894531 20.875 -44.507812 21.4375 -43.9375 C 22.007812 -43.375 22.460938 -42.894531 22.796875 -42.5 L 27.59375 -42.5 C 28.257812 -42.5 28.742188 -42.234375 29.046875 -41.703125 C 29.347656 -41.171875 29.332031 -40.632812 29 -40.09375 L 27.90625 -38.09375 C 28.832031 -37.300781 29.628906 -36.585938 30.296875 -35.953125 C 30.960938 -35.316406 31.726562 -34.46875 32.59375 -33.40625 Z M 32.59375 -33.40625 "/></g></g></g><g clip-path="url(#d3db6995d4)"><path fill="#36382e" d="M 238.46875 193.441406 C 235.867188 194.355469 232.082031 192.847656 231.976562 189.792969 C 239.882812 186.128906 236.511719 179.109375 231.820312 183.503906 C 228.945312 179.679688 223.144531 184.144531 231.15625 189.601562 C 231.046875 193.035156 226.199219 194.898438 223.601562 192.902344 C 223.480469 192.789062 223.375 192.667969 223.28125 192.535156 C 222.851562 192.050781 222.367188 192.691406 222.757812 193.109375 C 225.046875 195.886719 230.277344 194.632812 231.59375 191.449219 C 232.746094 193.910156 235.871094 195.117188 238.445312 194.441406 C 239.191406 194.199219 240.890625 193.527344 240.367188 192.535156 C 239.820312 191.925781 239.476562 193.214844 238.46875 193.441406 Z M 226.488281 187.972656 C 226.492188 187.980469 226.496094 187.984375 226.496094 187.988281 C 226.839844 188.601562 226.789062 188.765625 226.691406 188.847656 C 226.65625 188.878906 226.617188 188.890625 226.570312 188.890625 C 226.4375 188.890625 226.292969 188.777344 226.214844 188.710938 C 226.210938 188.707031 226.203125 188.703125 226.199219 188.695312 C 223.242188 185.40625 218.828125 183.636719 212.703125 183.285156 C 212.613281 183.28125 212.566406 183.234375 212.566406 183.148438 C 212.566406 183.058594 212.609375 183.011719 212.699219 183.003906 C 215.050781 182.816406 217.804688 183.160156 220.253906 183.953125 C 222.207031 184.585938 224.878906 185.800781 226.488281 187.972656 Z M 207.738281 187.523438 C 207.65625 187.546875 207.597656 187.519531 207.5625 187.441406 C 207.53125 187.359375 207.554688 187.300781 207.628906 187.261719 C 212.347656 184.839844 220.949219 185.578125 224.996094 188.75 C 225.644531 189.316406 225.632812 189.46875 225.566406 189.578125 C 225.523438 189.644531 225.464844 189.675781 225.382812 189.671875 C 225.277344 189.671875 225.148438 189.621094 225.023438 189.574219 C 225.015625 189.570312 225.011719 189.566406 225.003906 189.5625 C 219.453125 186.289062 213.804688 185.621094 207.738281 187.523438 Z M 224 190.824219 C 218.816406 189.355469 214.84375 189.535156 210.714844 191.429688 C 210.636719 191.464844 210.578125 191.449219 210.53125 191.375 C 210.488281 191.300781 210.503906 191.238281 210.570312 191.1875 C 213.617188 188.9375 220.347656 188.375 223.90625 190.074219 C 224.4375 190.378906 224.519531 190.53125 224.476562 190.667969 C 224.421875 190.851562 224.15625 190.835938 224.03125 190.828125 C 224.019531 190.828125 224.011719 190.824219 224 190.824219 Z M 250.632812 183.003906 C 250.71875 183.011719 250.765625 183.058594 250.761719 183.148438 C 250.761719 183.234375 250.71875 183.28125 250.628906 183.285156 C 244.503906 183.636719 240.089844 185.40625 237.132812 188.695312 C 237.125 188.703125 237.121094 188.707031 237.113281 188.710938 C 237.035156 188.777344 236.890625 188.890625 236.761719 188.890625 C 236.714844 188.890625 236.671875 188.878906 236.636719 188.847656 C 236.542969 188.765625 236.488281 188.601562 236.832031 187.988281 C 236.835938 187.984375 236.839844 187.980469 236.84375 187.972656 C 238.453125 185.800781 241.121094 184.585938 243.078125 183.953125 C 245.527344 183.160156 248.28125 182.816406 250.632812 183.003906 Z M 255.765625 187.441406 C 255.734375 187.519531 255.675781 187.546875 255.59375 187.523438 C 249.523438 185.621094 243.875 186.289062 238.324219 189.5625 C 238.320312 189.566406 238.3125 189.570312 238.308594 189.574219 C 238.183594 189.625 238.050781 189.671875 237.945312 189.671875 C 237.867188 189.675781 237.804688 189.648438 237.761719 189.578125 C 237.695312 189.46875 237.683594 189.316406 238.328125 188.753906 C 242.378906 185.578125 250.980469 184.839844 255.699219 187.261719 C 255.777344 187.300781 255.796875 187.359375 255.765625 187.441406 Z M 252.757812 191.1875 C 252.828125 191.238281 252.839844 191.300781 252.796875 191.375 C 252.753906 191.449219 252.691406 191.464844 252.617188 191.429688 C 248.488281 189.535156 244.511719 189.355469 239.328125 190.824219 C 239.320312 190.824219 239.308594 190.828125 239.296875 190.828125 C 239.171875 190.835938 238.910156 190.851562 238.851562 190.667969 C 238.8125 190.53125 238.890625 190.378906 239.414062 190.078125 C 242.980469 188.375 249.710938 188.9375 252.757812 191.1875 Z M 252.757812 191.1875 " fill-opacity="1" fill-rule="nonzero"/></g><g fill="#6bffb8" fill-opacity="1"><g transform="translate(58.110476, 254.499943)"><g><path d="M 3.8125 0.28125 C 3.21875 0.28125 2.640625 0.148438 2.078125 -0.109375 C 1.515625 -0.378906 1.050781 -0.753906 0.6875 -1.234375 L 1.546875 -2.21875 C 2.242188 -1.4375 2.984375 -1.046875 3.765625 -1.046875 C 4.109375 -1.046875 4.429688 -1.117188 4.734375 -1.265625 C 5.035156 -1.421875 5.273438 -1.632812 5.453125 -1.90625 C 5.628906 -2.175781 5.71875 -2.472656 5.71875 -2.796875 C 5.71875 -3.160156 5.628906 -3.46875 5.453125 -3.71875 C 5.273438 -3.96875 4.984375 -4.203125 4.578125 -4.421875 C 3.734375 -4.867188 3.09375 -5.238281 2.65625 -5.53125 C 2.21875 -5.832031 1.859375 -6.1875 1.578125 -6.59375 C 1.296875 -7.007812 1.15625 -7.503906 1.15625 -8.078125 C 1.15625 -8.628906 1.285156 -9.117188 1.546875 -9.546875 C 1.804688 -9.972656 2.160156 -10.304688 2.609375 -10.546875 C 3.054688 -10.785156 3.546875 -10.90625 4.078125 -10.90625 C 4.628906 -10.90625 5.132812 -10.785156 5.59375 -10.546875 C 6.0625 -10.304688 6.535156 -9.941406 7.015625 -9.453125 L 6.140625 -8.5625 C 5.796875 -8.894531 5.453125 -9.144531 5.109375 -9.3125 C 4.765625 -9.488281 4.394531 -9.578125 4 -9.578125 C 3.707031 -9.578125 3.441406 -9.515625 3.203125 -9.390625 C 2.960938 -9.265625 2.769531 -9.09375 2.625 -8.875 C 2.476562 -8.664062 2.40625 -8.425781 2.40625 -8.15625 C 2.40625 -7.800781 2.507812 -7.488281 2.71875 -7.21875 C 2.9375 -6.945312 3.265625 -6.691406 3.703125 -6.453125 C 4.554688 -5.992188 5.195312 -5.613281 5.625 -5.3125 C 6.0625 -5.007812 6.398438 -4.664062 6.640625 -4.28125 C 6.890625 -3.894531 7.015625 -3.421875 7.015625 -2.859375 C 7.015625 -2.296875 6.878906 -1.773438 6.609375 -1.296875 C 6.347656 -0.816406 5.972656 -0.429688 5.484375 -0.140625 C 5.003906 0.140625 4.445312 0.28125 3.8125 0.28125 Z M 3.8125 0.28125 "/></g></g></g><g fill="#6bffb8" fill-opacity="1"><g transform="translate(72.847427, 254.499943)"><g><path d="M 2.953125 -10.625 L 2.953125 -8.6875 C 3.472656 -9.414062 4.09375 -9.96875 4.8125 -10.34375 C 5.539062 -10.71875 6.332031 -10.90625 7.1875 -10.90625 C 8.195312 -10.90625 9.117188 -10.648438 9.953125 -10.140625 C 10.796875 -9.628906 11.460938 -8.953125 11.953125 -8.109375 C 12.441406 -7.265625 12.6875 -6.34375 12.6875 -5.34375 C 12.6875 -4.34375 12.441406 -3.410156 11.953125 -2.546875 C 11.472656 -1.691406 10.816406 -1.007812 9.984375 -0.5 C 9.148438 0.0078125 8.226562 0.265625 7.21875 0.265625 C 5.53125 0.265625 4.109375 -0.425781 2.953125 -1.8125 L 2.953125 3.875 L 1.59375 3.875 L 1.59375 -10.625 Z M 7.078125 -0.984375 C 7.847656 -0.984375 8.550781 -1.175781 9.1875 -1.5625 C 9.832031 -1.957031 10.34375 -2.488281 10.71875 -3.15625 C 11.09375 -3.820312 11.28125 -4.535156 11.28125 -5.296875 C 11.28125 -6.054688 11.097656 -6.765625 10.734375 -7.421875 C 10.378906 -8.078125 9.878906 -8.597656 9.234375 -8.984375 C 8.585938 -9.378906 7.867188 -9.578125 7.078125 -9.578125 C 6.296875 -9.578125 5.582031 -9.382812 4.9375 -9 C 4.300781 -8.625 3.796875 -8.109375 3.421875 -7.453125 C 3.046875 -6.804688 2.859375 -6.078125 2.859375 -5.265625 C 2.859375 -4.410156 3.054688 -3.660156 3.453125 -3.015625 C 3.847656 -2.367188 4.367188 -1.867188 5.015625 -1.515625 C 5.660156 -1.160156 6.347656 -0.984375 7.078125 -0.984375 Z M 7.078125 -0.984375 "/></g></g></g><g fill="#6bffb8" fill-opacity="1"><g transform="translate(93.502037, 254.499943)"><g><path d="M 6.5625 0.28125 C 5.519531 0.28125 4.570312 0.03125 3.71875 -0.46875 C 2.875 -0.96875 2.210938 -1.644531 1.734375 -2.5 C 1.253906 -3.351562 1.015625 -4.28125 1.015625 -5.28125 C 1.015625 -6.28125 1.253906 -7.210938 1.734375 -8.078125 C 2.210938 -8.941406 2.875 -9.628906 3.71875 -10.140625 C 4.570312 -10.648438 5.519531 -10.90625 6.5625 -10.90625 C 7.601562 -10.90625 8.546875 -10.648438 9.390625 -10.140625 C 10.234375 -9.628906 10.894531 -8.941406 11.375 -8.078125 C 11.851562 -7.210938 12.09375 -6.28125 12.09375 -5.28125 C 12.09375 -4.28125 11.851562 -3.351562 11.375 -2.5 C 10.894531 -1.644531 10.234375 -0.96875 9.390625 -0.46875 C 8.546875 0.03125 7.601562 0.28125 6.5625 0.28125 Z M 6.5625 -1.046875 C 7.332031 -1.046875 8.035156 -1.234375 8.671875 -1.609375 C 9.304688 -1.992188 9.800781 -2.507812 10.15625 -3.15625 C 10.519531 -3.800781 10.703125 -4.503906 10.703125 -5.265625 C 10.703125 -6.035156 10.515625 -6.75 10.140625 -7.40625 C 9.765625 -8.070312 9.257812 -8.597656 8.625 -8.984375 C 8 -9.378906 7.3125 -9.578125 6.5625 -9.578125 C 5.8125 -9.578125 5.117188 -9.378906 4.484375 -8.984375 C 3.859375 -8.597656 3.359375 -8.070312 2.984375 -7.40625 C 2.609375 -6.75 2.421875 -6.035156 2.421875 -5.265625 C 2.421875 -4.484375 2.597656 -3.773438 2.953125 -3.140625 C 3.316406 -2.503906 3.8125 -1.992188 4.4375 -1.609375 C 5.0625 -1.234375 5.769531 -1.046875 6.5625 -1.046875 Z M 6.5625 -1.046875 "/></g></g></g><g fill="#6bffb8" fill-opacity="1"><g transform="translate(113.576878, 254.499943)"><g><path d="M 2.953125 -10.625 L 2.953125 -8.71875 C 4.066406 -10.175781 5.394531 -10.90625 6.9375 -10.90625 C 7.726562 -10.90625 8.421875 -10.71875 9.015625 -10.34375 C 9.609375 -9.976562 10.066406 -9.425781 10.390625 -8.6875 C 10.710938 -7.945312 10.875 -7.035156 10.875 -5.953125 L 10.875 0 L 9.515625 0 L 9.515625 -5.78125 C 9.515625 -7.070312 9.289062 -8.039062 8.84375 -8.6875 C 8.40625 -9.332031 7.6875 -9.65625 6.6875 -9.65625 C 6.03125 -9.65625 5.414062 -9.472656 4.84375 -9.109375 C 4.28125 -8.753906 3.820312 -8.234375 3.46875 -7.546875 C 3.125 -6.859375 2.953125 -6.039062 2.953125 -5.09375 L 2.953125 0 L 1.59375 0 L 1.59375 -10.625 Z M 2.953125 -10.625 "/></g></g></g><g fill="#6bffb8" fill-opacity="1"><g transform="translate(132.832048, 254.499943)"><g><path d="M 3.8125 0.28125 C 3.21875 0.28125 2.640625 0.148438 2.078125 -0.109375 C 1.515625 -0.378906 1.050781 -0.753906 0.6875 -1.234375 L 1.546875 -2.21875 C 2.242188 -1.4375 2.984375 -1.046875 3.765625 -1.046875 C 4.109375 -1.046875 4.429688 -1.117188 4.734375 -1.265625 C 5.035156 -1.421875 5.273438 -1.632812 5.453125 -1.90625 C 5.628906 -2.175781 5.71875 -2.472656 5.71875 -2.796875 C 5.71875 -3.160156 5.628906 -3.46875 5.453125 -3.71875 C 5.273438 -3.96875 4.984375 -4.203125 4.578125 -4.421875 C 3.734375 -4.867188 3.09375 -5.238281 2.65625 -5.53125 C 2.21875 -5.832031 1.859375 -6.1875 1.578125 -6.59375 C 1.296875 -7.007812 1.15625 -7.503906 1.15625 -8.078125 C 1.15625 -8.628906 1.285156 -9.117188 1.546875 -9.546875 C 1.804688 -9.972656 2.160156 -10.304688 2.609375 -10.546875 C 3.054688 -10.785156 3.546875 -10.90625 4.078125 -10.90625 C 4.628906 -10.90625 5.132812 -10.785156 5.59375 -10.546875 C 6.0625 -10.304688 6.535156 -9.941406 7.015625 -9.453125 L 6.140625 -8.5625 C 5.796875 -8.894531 5.453125 -9.144531 5.109375 -9.3125 C 4.765625 -9.488281 4.394531 -9.578125 4 -9.578125 C 3.707031 -9.578125 3.441406 -9.515625 3.203125 -9.390625 C 2.960938 -9.265625 2.769531 -9.09375 2.625 -8.875 C 2.476562 -8.664062 2.40625 -8.425781 2.40625 -8.15625 C 2.40625 -7.800781 2.507812 -7.488281 2.71875 -7.21875 C 2.9375 -6.945312 3.265625 -6.691406 3.703125 -6.453125 C 4.554688 -5.992188 5.195312 -5.613281 5.625 -5.3125 C 6.0625 -5.007812 6.398438 -4.664062 6.640625 -4.28125 C 6.890625 -3.894531 7.015625 -3.421875 7.015625 -2.859375 C 7.015625 -2.296875 6.878906 -1.773438 6.609375 -1.296875 C 6.347656 -0.816406 5.972656 -0.429688 5.484375 -0.140625 C 5.003906 0.140625 4.445312 0.28125 3.8125 0.28125 Z M 3.8125 0.28125 "/></g></g></g><g fill="#6bffb8" fill-opacity="1"><g transform="translate(147.568999, 254.499943)"><g><path d="M 6.5625 0.28125 C 5.519531 0.28125 4.570312 0.03125 3.71875 -0.46875 C 2.875 -0.96875 2.210938 -1.644531 1.734375 -2.5 C 1.253906 -3.351562 1.015625 -4.28125 1.015625 -5.28125 C 1.015625 -6.28125 1.253906 -7.210938 1.734375 -8.078125 C 2.210938 -8.941406 2.875 -9.628906 3.71875 -10.140625 C 4.570312 -10.648438 5.519531 -10.90625 6.5625 -10.90625 C 7.601562 -10.90625 8.546875 -10.648438 9.390625 -10.140625 C 10.234375 -9.628906 10.894531 -8.941406 11.375 -8.078125 C 11.851562 -7.210938 12.09375 -6.28125 12.09375 -5.28125 C 12.09375 -4.28125 11.851562 -3.351562 11.375 -2.5 C 10.894531 -1.644531 10.234375 -0.96875 9.390625 -0.46875 C 8.546875 0.03125 7.601562 0.28125 6.5625 0.28125 Z M 6.5625 -1.046875 C 7.332031 -1.046875 8.035156 -1.234375 8.671875 -1.609375 C 9.304688 -1.992188 9.800781 -2.507812 10.15625 -3.15625 C 10.519531 -3.800781 10.703125 -4.503906 10.703125 -5.265625 C 10.703125 -6.035156 10.515625 -6.75 10.140625 -7.40625 C 9.765625 -8.070312 9.257812 -8.597656 8.625 -8.984375 C 8 -9.378906 7.3125 -9.578125 6.5625 -9.578125 C 5.8125 -9.578125 5.117188 -9.378906 4.484375 -8.984375 C 3.859375 -8.597656 3.359375 -8.070312 2.984375 -7.40625 C 2.609375 -6.75 2.421875 -6.035156 2.421875 -5.265625 C 2.421875 -4.484375 2.597656 -3.773438 2.953125 -3.140625 C 3.316406 -2.503906 3.8125 -1.992188 4.4375 -1.609375 C 5.0625 -1.234375 5.769531 -1.046875 6.5625 -1.046875 Z M 6.5625 -1.046875 "/></g></g></g><g fill="#6bffb8" fill-opacity="1"><g transform="translate(167.64384, 254.499943)"><g><path d="M 2.953125 -10.625 L 2.953125 -9.078125 C 3.367188 -9.679688 3.800781 -10.132812 4.25 -10.4375 C 4.695312 -10.75 5.179688 -10.90625 5.703125 -10.90625 C 5.953125 -10.90625 6.171875 -10.875 6.359375 -10.8125 C 6.554688 -10.75 6.742188 -10.660156 6.921875 -10.546875 L 6.203125 -9.375 C 5.929688 -9.507812 5.691406 -9.578125 5.484375 -9.578125 C 5.003906 -9.578125 4.570312 -9.398438 4.1875 -9.046875 C 3.8125 -8.691406 3.507812 -8.191406 3.28125 -7.546875 C 3.0625 -6.910156 2.953125 -6.179688 2.953125 -5.359375 L 2.953125 0 L 1.59375 0 L 1.59375 -10.625 Z M 2.953125 -10.625 "/></g></g></g><g fill="#6bffb8" fill-opacity="1"><g transform="translate(181.181261, 254.499943)"><g/></g></g><g fill="#6bffb8" fill-opacity="1"><g transform="translate(193.699083, 254.499943)"><g><path d="M 14.640625 0 L 12.640625 0 L 10.78125 -1.921875 C 10.101562 -1.398438 9.515625 -0.988281 9.015625 -0.6875 C 8.515625 -0.382812 7.96875 -0.140625 7.375 0.046875 C 6.78125 0.242188 6.132812 0.34375 5.4375 0.34375 C 4.675781 0.34375 4.019531 0.191406 3.46875 -0.109375 C 2.914062 -0.410156 2.492188 -0.8125 2.203125 -1.3125 C 1.921875 -1.820312 1.78125 -2.378906 1.78125 -2.984375 C 1.78125 -3.578125 1.914062 -4.140625 2.1875 -4.671875 C 2.457031 -5.210938 2.832031 -5.722656 3.3125 -6.203125 C 3.800781 -6.679688 4.429688 -7.234375 5.203125 -7.859375 C 4.578125 -8.566406 4.113281 -9.175781 3.8125 -9.6875 C 3.519531 -10.195312 3.375 -10.710938 3.375 -11.234375 C 3.375 -11.734375 3.515625 -12.175781 3.796875 -12.5625 C 4.078125 -12.957031 4.460938 -13.265625 4.953125 -13.484375 C 5.441406 -13.703125 5.976562 -13.8125 6.5625 -13.8125 C 7.175781 -13.8125 7.71875 -13.695312 8.1875 -13.46875 C 8.664062 -13.25 9.035156 -12.941406 9.296875 -12.546875 C 9.566406 -12.148438 9.703125 -11.707031 9.703125 -11.21875 C 9.703125 -10.832031 9.617188 -10.460938 9.453125 -10.109375 C 9.285156 -9.753906 9.023438 -9.382812 8.671875 -9 C 8.316406 -8.613281 7.835938 -8.160156 7.234375 -7.640625 C 8.203125 -6.628906 9.4375 -5.347656 10.9375 -3.796875 C 11.207031 -4.023438 11.472656 -4.253906 11.734375 -4.484375 C 11.992188 -4.722656 12.175781 -4.890625 12.28125 -4.984375 L 12.640625 -5.3125 L 13.59375 -4.28125 L 13.21875 -3.9375 C 12.945312 -3.6875 12.515625 -3.304688 11.921875 -2.796875 Z M 6.515625 -12.5 C 6.222656 -12.5 5.941406 -12.445312 5.671875 -12.34375 C 5.410156 -12.238281 5.195312 -12.085938 5.03125 -11.890625 C 4.863281 -11.691406 4.78125 -11.46875 4.78125 -11.21875 C 4.78125 -10.6875 5.285156 -9.84375 6.296875 -8.6875 C 7.628906 -9.695312 8.296875 -10.546875 8.296875 -11.234375 C 8.296875 -11.460938 8.21875 -11.671875 8.0625 -11.859375 C 7.914062 -12.054688 7.703125 -12.210938 7.421875 -12.328125 C 7.148438 -12.441406 6.847656 -12.5 6.515625 -12.5 Z M 3.1875 -3.0625 C 3.1875 -2.71875 3.285156 -2.382812 3.484375 -2.0625 C 3.691406 -1.738281 3.972656 -1.476562 4.328125 -1.28125 C 4.691406 -1.082031 5.109375 -0.984375 5.578125 -0.984375 C 6.203125 -0.984375 6.851562 -1.144531 7.53125 -1.46875 C 8.21875 -1.789062 8.976562 -2.273438 9.8125 -2.921875 L 9.4375 -3.3125 C 8.28125 -4.5 7.195312 -5.65625 6.1875 -6.78125 C 5.488281 -6.257812 4.925781 -5.800781 4.5 -5.40625 C 4.082031 -5.007812 3.757812 -4.617188 3.53125 -4.234375 C 3.300781 -3.847656 3.1875 -3.457031 3.1875 -3.0625 Z M 3.1875 -3.0625 "/></g></g></g><g fill="#6bffb8" fill-opacity="1"><g transform="translate(215.513237, 254.499943)"><g/></g></g><g fill="#6bffb8" fill-opacity="1"><g transform="translate(228.031058, 254.499943)"><g><path d="M 6.453125 0.265625 C 5.441406 0.265625 4.519531 0.0078125 3.6875 -0.5 C 2.863281 -1.007812 2.210938 -1.691406 1.734375 -2.546875 C 1.253906 -3.410156 1.015625 -4.34375 1.015625 -5.34375 C 1.015625 -6.34375 1.257812 -7.265625 1.75 -8.109375 C 2.238281 -8.953125 2.898438 -9.628906 3.734375 -10.140625 C 4.578125 -10.648438 5.5 -10.90625 6.5 -10.90625 C 7.363281 -10.90625 8.15625 -10.71875 8.875 -10.34375 C 9.59375 -9.96875 10.210938 -9.414062 10.734375 -8.6875 L 10.734375 -10.625 L 12.078125 -10.625 L 12.078125 0 L 10.734375 0 L 10.734375 -1.8125 C 10.160156 -1.125 9.515625 -0.601562 8.796875 -0.25 C 8.078125 0.09375 7.296875 0.265625 6.453125 0.265625 Z M 6.59375 -0.984375 C 7.332031 -0.984375 8.023438 -1.160156 8.671875 -1.515625 C 9.328125 -1.867188 9.851562 -2.367188 10.25 -3.015625 C 10.644531 -3.660156 10.84375 -4.410156 10.84375 -5.265625 C 10.84375 -6.078125 10.65625 -6.804688 10.28125 -7.453125 C 9.90625 -8.109375 9.394531 -8.625 8.75 -9 C 8.113281 -9.382812 7.40625 -9.578125 6.625 -9.578125 C 5.832031 -9.578125 5.113281 -9.378906 4.46875 -8.984375 C 3.820312 -8.597656 3.316406 -8.078125 2.953125 -7.421875 C 2.597656 -6.765625 2.421875 -6.054688 2.421875 -5.296875 C 2.421875 -4.535156 2.601562 -3.828125 2.96875 -3.171875 C 3.332031 -2.515625 3.832031 -1.984375 4.46875 -1.578125 C 5.113281 -1.179688 5.820312 -0.984375 6.59375 -0.984375 Z M 6.59375 -0.984375 "/></g></g></g><g fill="#6bffb8" fill-opacity="1"><g transform="translate(248.685674, 254.499943)"><g><path d="M 6.453125 0.265625 C 5.441406 0.265625 4.519531 0.0078125 3.6875 -0.5 C 2.863281 -1.007812 2.210938 -1.691406 1.734375 -2.546875 C 1.253906 -3.410156 1.015625 -4.34375 1.015625 -5.34375 C 1.015625 -6.34375 1.257812 -7.265625 1.75 -8.109375 C 2.238281 -8.953125 2.898438 -9.628906 3.734375 -10.140625 C 4.578125 -10.648438 5.5 -10.90625 6.5 -10.90625 C 7.363281 -10.90625 8.15625 -10.71875 8.875 -10.34375 C 9.59375 -9.96875 10.210938 -9.414062 10.734375 -8.6875 L 10.734375 -14.71875 L 12.09375 -14.71875 L 12.09375 0 L 10.734375 0 L 10.734375 -1.8125 C 10.160156 -1.125 9.515625 -0.601562 8.796875 -0.25 C 8.078125 0.09375 7.296875 0.265625 6.453125 0.265625 Z M 6.59375 -0.984375 C 7.332031 -0.984375 8.023438 -1.160156 8.671875 -1.515625 C 9.316406 -1.867188 9.832031 -2.367188 10.21875 -3.015625 C 10.613281 -3.660156 10.8125 -4.410156 10.8125 -5.265625 C 10.8125 -6.078125 10.628906 -6.804688 10.265625 -7.453125 C 9.898438 -8.109375 9.394531 -8.625 8.75 -9 C 8.113281 -9.382812 7.40625 -9.578125 6.625 -9.578125 C 5.832031 -9.578125 5.113281 -9.378906 4.46875 -8.984375 C 3.820312 -8.597656 3.316406 -8.078125 2.953125 -7.421875 C 2.597656 -6.765625 2.421875 -6.054688 2.421875 -5.296875 C 2.421875 -4.535156 2.601562 -3.828125 2.96875 -3.171875 C 3.332031 -2.515625 3.832031 -1.984375 4.46875 -1.578125 C 5.113281 -1.179688 5.820312 -0.984375 6.59375 -0.984375 Z M 6.59375 -0.984375 "/></g></g></g><g fill="#6bffb8" fill-opacity="1"><g transform="translate(269.360272, 254.499943)"><g><path d="M 6.5625 0.28125 C 5.519531 0.28125 4.570312 0.03125 3.71875 -0.46875 C 2.875 -0.96875 2.210938 -1.644531 1.734375 -2.5 C 1.253906 -3.351562 1.015625 -4.28125 1.015625 -5.28125 C 1.015625 -6.28125 1.253906 -7.210938 1.734375 -8.078125 C 2.210938 -8.941406 2.875 -9.628906 3.71875 -10.140625 C 4.570312 -10.648438 5.519531 -10.90625 6.5625 -10.90625 C 7.601562 -10.90625 8.546875 -10.648438 9.390625 -10.140625 C 10.234375 -9.628906 10.894531 -8.941406 11.375 -8.078125 C 11.851562 -7.210938 12.09375 -6.28125 12.09375 -5.28125 C 12.09375 -4.28125 11.851562 -3.351562 11.375 -2.5 C 10.894531 -1.644531 10.234375 -0.96875 9.390625 -0.46875 C 8.546875 0.03125 7.601562 0.28125 6.5625 0.28125 Z M 6.5625 -1.046875 C 7.332031 -1.046875 8.035156 -1.234375 8.671875 -1.609375 C 9.304688 -1.992188 9.800781 -2.507812 10.15625 -3.15625 C 10.519531 -3.800781 10.703125 -4.503906 10.703125 -5.265625 C 10.703125 -6.035156 10.515625 -6.75 10.140625 -7.40625 C 9.765625 -8.070312 9.257812 -8.597656 8.625 -8.984375 C 8 -9.378906 7.3125 -9.578125 6.5625 -9.578125 C 5.8125 -9.578125 5.117188 -9.378906 4.484375 -8.984375 C 3.859375 -8.597656 3.359375 -8.070312 2.984375 -7.40625 C 2.609375 -6.75 2.421875 -6.035156 2.421875 -5.265625 C 2.421875 -4.484375 2.597656 -3.773438 2.953125 -3.140625 C 3.316406 -2.503906 3.8125 -1.992188 4.4375 -1.609375 C 5.0625 -1.234375 5.769531 -1.046875 6.5625 -1.046875 Z M 6.5625 -1.046875 "/></g></g></g><g fill="#6bffb8" fill-opacity="1"><g transform="translate(289.435107, 254.499943)"><g><path d="M 2.953125 -10.625 L 2.953125 -8.6875 C 3.472656 -9.414062 4.09375 -9.96875 4.8125 -10.34375 C 5.539062 -10.71875 6.332031 -10.90625 7.1875 -10.90625 C 8.195312 -10.90625 9.117188 -10.648438 9.953125 -10.140625 C 10.796875 -9.628906 11.460938 -8.953125 11.953125 -8.109375 C 12.441406 -7.265625 12.6875 -6.34375 12.6875 -5.34375 C 12.6875 -4.34375 12.441406 -3.410156 11.953125 -2.546875 C 11.472656 -1.691406 10.816406 -1.007812 9.984375 -0.5 C 9.148438 0.0078125 8.226562 0.265625 7.21875 0.265625 C 5.53125 0.265625 4.109375 -0.425781 2.953125 -1.8125 L 2.953125 3.875 L 1.59375 3.875 L 1.59375 -10.625 Z M 7.078125 -0.984375 C 7.847656 -0.984375 8.550781 -1.175781 9.1875 -1.5625 C 9.832031 -1.957031 10.34375 -2.488281 10.71875 -3.15625 C 11.09375 -3.820312 11.28125 -4.535156 11.28125 -5.296875 C 11.28125 -6.054688 11.097656 -6.765625 10.734375 -7.421875 C 10.378906 -8.078125 9.878906 -8.597656 9.234375 -8.984375 C 8.585938 -9.378906 7.867188 -9.578125 7.078125 -9.578125 C 6.296875 -9.578125 5.582031 -9.382812 4.9375 -9 C 4.300781 -8.625 3.796875 -8.109375 3.421875 -7.453125 C 3.046875 -6.804688 2.859375 -6.078125 2.859375 -5.265625 C 2.859375 -4.410156 3.054688 -3.660156 3.453125 -3.015625 C 3.847656 -2.367188 4.367188 -1.867188 5.015625 -1.515625 C 5.660156 -1.160156 6.347656 -0.984375 7.078125 -0.984375 Z M 7.078125 -0.984375 "/></g></g></g><g fill="#6bffb8" fill-opacity="1"><g transform="translate(310.089724, 254.499943)"><g><path d="M 2.734375 -9.421875 L 0.859375 -9.421875 L 0.859375 -10.625 L 2.734375 -10.625 L 2.734375 -14.578125 L 4.09375 -14.578125 L 4.09375 -10.625 L 6.28125 -10.625 L 6.28125 -9.421875 L 4.09375 -9.421875 L 4.09375 0 L 2.734375 0 Z M 2.734375 -9.421875 "/></g></g></g></svg>